<?xml version="1.0" encoding="UTF-8"?>
<svg viewBox="0 0 491.78 580.68" xmlns="http://www.w3.org/2000/svg">
 <defs>
  <linearGradient id="g" x1="-1.2e-5" x2=".99999" y1=".50001" y2=".50001">
   <stop stop-color="#17592a" offset=".0056"/>
   <stop stop-color="#4d9d22" offset="1"/>
  </linearGradient>
  <linearGradient id="a" x1="1" x2="1.2e-5" y1=".50001" y2=".50001">
   <stop stop-color="#17592a" offset=".0056"/>
   <stop stop-color="#4d9d22" offset="1"/>
  </linearGradient>
  <radialGradient id="e" x1="1" cx="241.96" cy="36.5" r="87.281" gradientTransform="matrix(1.3964 -.5704 .5456 .7768 -161.19 196.16)" gradientUnits="userSpaceOnUse">
   <stop stop-color="#c5870f" offset=".0056"/>
   <stop stop-color="#eee600" offset=".7978"/>
  </radialGradient>
  <radialGradient id="f" x2="0" cx="241.96" cy="36.5" r="87.281" gradientTransform="matrix(1.3964 -.5704 .5456 .7768 -161.19 196.16)" gradientUnits="userSpaceOnUse">
   <stop stop-color="#c5870f" offset=".0056"/>
   <stop stop-color="#eee600" offset=".7978"/>
  </radialGradient>
 </defs>
 <g transform="rotate(7.7808 213.99 261.8)">
  <g stroke="#165829" stroke-linejoin="round">
   <g transform="matrix(.98028 .13254 -.13029 .9972 53.698 -29.876)" vector-effect="non-scaling-stroke">
    <path d="m194.84 404.53s27.944-46.083 45.358-40.377c13.96 4.574 21.464 18.872 21.464 18.872s-16.874-19.507-28.754 0c-13.364 21.944-37.258 46.522-37.258 46.522" fill="url(#a)" stroke-width="3"/>
    <path d="m196.46 416.38s13.229-12.142 21.599-27.503 13.229-19.311 19.709-19.896 17.414 6.5832 17.414 6.5832" fill="none"/>
   </g>
   <path d="m259.71 121.79s-16.963 12.714-41.827 57.553-26.955 125.25-26.72 161.56 3.0739 171.72 3.0739 171.72" fill="none" stroke-width="4"/>
  </g>
  <g vector-effect="non-scaling-stroke">
   <g transform="matrix(.98028 .13254 -.13029 .9972 40.024 -31.258)" stroke="#165829" stroke-linejoin="round">
    <path d="m198.31 299.35s27.944-46.083 45.358-40.377c13.96 4.574 21.464 18.872 21.464 18.872s-16.874-19.507-28.754 0c-13.364 21.944-37.258 46.522-37.258 46.522" fill="url(#a)" stroke-width="3"/>
    <path d="m199.93 311.2s13.229-12.142 21.599-27.503 13.229-19.311 19.709-19.896 17.414 6.5832 17.414 6.5832" fill="none"/>
   </g>
   <g transform="matrix(.98028 .13254 -.13029 .9972 20.236 -35.123)">
    <g stroke="#000">
     <path d="m253.59 120.78s-26.455-90.85-37.158-59.709c-43.355-23.424 25.886 62.05 25.886 62.05s-73.45-79.046-65.641-45.863c-43.842-2.4123 62.619 49.953 62.619 49.953s-101.7-52.989-78.566-21.72c-38.278 11.526 77.648 29.674 77.648 29.674s-120.25-17.799-72.074 8.4528c-20.595 29.182 75.117-2.5121 75.117-2.5121s-94.716 31.929-44.538 42.357c1.5265 35.184 52.981-35.63 52.981-35.63s-41.31 70.788-3.7004 60.435c28.67 33.148 14.792-57.329 14.792-57.329s31.621 87.936 43.933 60.924c38.403 19.934-34.555-63.018-34.555-63.018s79.446 78.059 69.687 43.893c43.343 4.9846-65.052-49.975-65.052-49.975s104.97 38.405 79.658 12.041c24.213-17.869-81.951-21.648-81.951-21.648s92.442-18.056 54.878-32.154c0.86868-29.217-60.257 25.475-60.257 25.475s42.922-67.899 11.299-58.569c-17.594-31.698-25.006 52.873-25.006 52.873z" fill="url(#e)"/>
     <path d="m239.29 127.21c-3.7421 6.567 0.98981 15.799 10.569 20.621 9.5804 4.8227 20.38 3.4081 24.123-3.1598 3.7429-6.566-0.98908-15.799-10.57-20.621-9.5788-4.8217-20.38-3.4071-24.122 3.1598z" fill="#583307"/>
     <g fill="none">
      <line x1="266.66" x2="261.34" y1="109.03" y2="122.82"/>
      <line x1="247.45" x2="240.52" y1="121.31" y2="106.85"/>
      <line x1="240.19" x2="228.31" y1="125.17" y2="115.72"/>
      <line x1="238.96" x2="228.04" y1="138.41" y2="139.84"/>
      <line x1="237.45" x2="224.06" y1="130.72" y2="126.87"/>
      <line x1="254.85" x2="253.39" y1="150.45" y2="160.41"/>
      <line x1="264.94" x2="271.11" y1="149.75" y2="160.37"/>
      <line x1="273.05" x2="289.45" y1="146.62" y2="157.76"/>
      <line x1="275.96" x2="290.32" y1="138.55" y2="141.45"/>
      <line x1="271.7" x2="281.74" y1="129.76" y2="124.71"/>
      <line x1="245.45" x2="236.23" y1="145.14" y2="151.34"/>
     </g>
    </g>
   </g>
   <g transform="matrix(.98028 .13254 -.13029 .9972 47.303 -21.808)" stroke="#165829" stroke-linejoin="round">
    <path d="m196.88 359.67s-27.164-46.083-44.092-40.377c-13.571 4.5741-20.865 18.872-20.865 18.872s16.403-19.507 27.951 0c12.991 21.944 36.218 46.522 36.218 46.522" fill="url(#g)" stroke-width="3"/>
    <path d="m195.31 371.52s-12.86-12.142-20.996-27.503-12.86-19.311-19.158-19.896-16.928 6.5832-16.928 6.5832" fill="none"/>
   </g>
   <g transform="matrix(.98028 .13254 -.13029 .9972 28.699 -18.889)">
    <g stroke="#000">
     <path d="m131.16 198.92s17.78-57.934 24.974-38.076c29.138-14.937-17.397 39.569-17.397 39.569s49.364-50.407 44.116-29.246c29.465-1.5383-42.085 31.854-42.085 31.854s68.352-33.791 52.803-13.851c25.726 7.3502-52.186 18.923-52.186 18.923s80.816-11.35 48.44 5.3903c13.842 18.609-50.485-1.602-50.485-1.602s63.657 20.361 29.933 27.011c-1.0259 22.436-35.607-22.721-35.607-22.721s27.764 45.141 2.487 38.539c-19.269 21.138-9.9416-36.558-9.9416-36.558s-21.252 56.076-29.527 38.851c-25.81 12.711 23.224-40.186 23.224-40.186s-53.394 49.777-46.835 27.99c-29.13 3.1786 43.72-31.869 43.72-31.869s-70.547 24.49-53.537 7.6785c-16.273-11.395 55.078-13.805 55.078-13.805s-62.128-11.514-36.882-20.504c-0.58386-18.632 40.497 16.245 40.497 16.245s-28.847-43.298-7.5937-37.349c11.825-20.214 16.806 33.717 16.806 33.717z" fill="url(#f)"/>
     <path d="m140.77 203.02c2.515 4.1877-0.66522 10.075-7.1029 13.15-6.4388 3.0754-13.697 2.1733-16.213-2.015-2.5155-4.1871 0.66472-10.075 7.1036-13.15 6.4376-3.0748 13.697-2.1727 16.212 2.015z" fill="#583307"/>
     <g fill="none">
      <line x1="122.37" x2="125.95" y1="191.43" y2="200.22"/>
      <line x1="135.29" x2="139.94" y1="199.26" y2="190.04"/>
      <line x1="140.16" x2="148.15" y1="201.72" y2="195.69"/>
      <line x1="140.99" x2="148.33" y1="210.17" y2="211.08"/>
      <line x1="142.01" x2="151.01" y1="205.26" y2="202.8"/>
      <line x1="130.31" x2="131.29" y1="217.84" y2="224.19"/>
      <line x1="123.53" x2="119.38" y1="217.4" y2="224.17"/>
      <line x1="118.08" x2="107.06" y1="215.4" y2="222.5"/>
      <line x1="116.12" x2="106.47" y1="210.25" y2="212.1"/>
      <line x1="118.99" x2="112.24" y1="204.65" y2="201.43"/>
      <line x1="136.63" x2="142.82" y1="214.46" y2="218.41"/>
     </g>
    </g>
   </g>
  </g>
  <path d="m136.89 213.04s12.206 9.3852 31.155 43.379 23.635 96.042 24.938 124.09 4.8098 132.7 4.8098 132.7" fill="none" stroke="#165829" stroke-linejoin="round" stroke-width="4"/>
 </g>
</svg>
