<?xml version="1.0" encoding="UTF-8"?>
<svg viewBox="0 0 640 480" xmlns="http://www.w3.org/2000/svg">
 <defs>
  <linearGradient id="a" x1=".34289" x2=".77834" y1=".28064" y2=".84911">
   <stop stop-color="#dec164" offset="0"/>
   <stop stop-color="#d5a864" offset="1"/>
  </linearGradient>
 </defs>
 <g transform="rotate(65.633 303.26 241.51)">
  <g fill-rule="evenodd">
   <path d="m222.8 333.78c41.717 11.236 70.755 51.838 115.87 53.439 33.098 4.2388 79.816 10.472 99.8 5.024 47.932-28.484 62.624-85.852 62.252-123.41-6.6008-23.226-23.996-41.183-40.274-58.4-14.619-29.994-43.253-51.86-65.323-77.025-27.572-28.245-69.335-21.586-105.38-28.84-34.629-8.2321-69.048-31.734-106.13-21.957-37.518 3.9613-73.01 26.481-77.257 65.083-11.725 62.661 17.675 131.27 75.694 162.54" fill="url(#a)"/>
   <g fill-opacity=".082">
    <path d="m182.32 305.92c2.6485 13.131 18.106 12.016 26.968 18.962 12.449 7.6333 27.244 10.542 39.227 19.105 20.017 12.088 38.903 29.284 63.467 30.835 16.818-0.55917 26.914 14.366 42.774 15.702 22.086 4.169 44.629 5.3134 66.74 9.3464 31.217-6.7324 52.329-33.598 66.116-60.167 8.4112-18.391 13.259-38.842 11.832-58.995-0.3548-8.7378 0.42816-38.33-4.0212-21.725-1.1303 15.702-19.889 23.13-20.452 39.33 1.4349 10.159 1.419 15.854-6.203 25.081-9.6659 17.54-31.064 22.528-45.469 35.129-13.744 8.2336-30.327 7.354-45.687 6.0454-26.239 0.97314-52.629-5.0834-75.451-17.936-18.049-9.6366-37.15-18.297-57.939-19.751-20.668-3.1209-41.142-10.024-57.737-22.818-1.4561-0.23352-4.0459-0.13818-4.1668 1.8557z"/>
    <path d="m235.76 337.87l3.6088 3.5987c27.775 12.124 41.422 35.45 73.24 37.567 11.621 0.92267 27.825 2.5391 37.74 7.1548 23.894 5.6972 47.544 11.227 71.782 15.392 33-8.6872 55.697-42.952 67.169-72.896 4.9498-12.49 6.9679-27.308 8.0442-39.904 1.1839-9.0176 1.1799-18.961-1.1008-27.298-1.4133 2.4654-0.46222 13.691-1.5714 16.314-6.488-4.3761-16.438 20.01-13.674 29.456-3.2642 10.398-7.5664 20.31-15.401 28.49-12.593 12.315-29.286 19.522-43.561 29.66-21.062 10.456-45.409 4.9462-67.938 4.6862-30.81-2.0851-56.871-19.856-84.821-30.667-11.707-3.9652-21.312 0.31427-33.516-1.5531z"/>
   </g>
   <g fill="#fff">
    <path d="m114.96 126.04c-8.1879 19.89-5.2342 33.118-8.7487 54.112 0.25406 9.4866 1.4874 30.352 6.0284 20.036 8.1754-22.848 17.564-64.421 43.307-73.628 16.852-8.1064 35.606-11.386 54.226-10.609 16.222-3.0881 33.758-6.9724 49.117 1.266 25.187 10.372 83.681 18.072 113.5 13.838 10.12 3.3606-12.837-11.78-22.736-18.611-29.417-15.91-66.788-9.2191-97.452-21.716-21.264-7.6699-39.914-10.324-62.374-6.2787-26.303 1.1869-43.262-7.7753-57.99 16.245-1.9681 2.6039-15.228 22.549-16.876 25.345z" fill-opacity=".124"/>
    <path d="m102.6 174.14c6.7334-23.558 8.7271-50.03 25.887-69.191 16.518-17.832 42.626-19.516 65.547-20.937 13.627-1.7188 27.602-2.439 40.953 1.3919 21.513 5.2584 41.9 15.365 64.361 16.463 15.314 1.8052 30.241 6.1517 44.677 11.19 11.273 3.5926 5.6308 13.591-4.2231 10.459-20.888-0.074585-42.132-0.50058-62.066-7.4077-11.067-2.8086-21.254-8.5504-32.45-10.682-12.145-1.6969-23.821 3.2527-35.688 4.2113-13.032-0.57663-26.598-0.60948-38.65 4.935-18.028 4.6306-36.311 14.202-44.651 31.399-7.249 11.71-10.48 25.236-15.575 37.788-5.4187 6.7923-11.218-5.3263-8.1227-9.6202z" fill-opacity=".125"/>
   </g>
  </g>
  <path d="m121.65 106.12c-13.547 23.352-20.635 45.247-18.284 73.326-1.1029 35.121 14.966 62.654 27.819 94.333 15.036 28.594 53.153 32.369 72.614 56.766 24.61 11.673 49.555 15.373 70.095 34.207 27.994 20.353 67.245 25.567 100.86 28.667 27.142 5.0267 51.204 19.829 74.303-3.183 25.777-23.658 49.771-53.785 50.565-89.453 9.0286-25.876 7.8914-56.358-17.257-73.205-34.141-37.187-60.799-82.699-105.25-109.49-39.833-18.903-81.209-6.1156-120.14-27.928-30.017-13.205-53.925-10.692-90.766-6.6004-13.176 1.9757-35.661 12.42-44.557 22.558zm3.6109 7.1015c20.637-24.187 54.091-22.044 82.371-26.484 28.408-4.7629 52.687 14.722 78.937 20.212 40.039 7.4252 88.457 6.0963 117.95 38.822 35.423 33.276 52.533 74.75 88.55 107.49-1.0704 28.071 2.9847 51.335-10.302 89.214-15.568 22.151-35.211 51.979-66.434 50.284-25.471-4.4408-51.366-12.025-77.209-14.434-30.686-3.5081-59.651-14.23-82.969-33.704-18.597-16.473-47.445-13.991-63.738-33.804-19.007-17.397-46.006-25.734-59.164-49.701-12.034-27.94-22.522-54.644-23.827-85.595-2.6493-22.816 4.0017-47.648 15.841-62.304z"/>
  <path d="m383.93 324.96c0.011139 2.7583 0.49606 9.4202 3.2143 3.715 5.8962-6.4531 14.365-9.6774 22.493-12.494 6.0089 1.6843 10.041 7.9247 11.156 13.624-1.07 3.1651-4.1248 9.7731-0.82465 11.246 4.993-8.2094 4.5106-19.571-2.2797-26.691-2.6717-4.8491-8.9068-6.9051-13.613-3.5302-7.6756 2.9859-15.792 6.894-20.146 14.13zm3.7459 15.288c-1.5296 5.0006-0.75049 10.832 4.1655 13.751 4.6859 4.4471 11.737 4.9741 17.453 2.271 4.7191 0.1955 6.8136-9.3425 2.6148-8.9421-5.089 3.6456-14.269 5.4735-18.197-0.70987-0.86252-3.0088-6.3618-7.6991-5.0525-1.348-0.17374 6.3247 0.013641-9.1805-0.14835-0.75955-0.30432 5.7043-0.58609-3.3956-0.83578-4.2624z" fill-opacity=".129"/>
  <path d="m373.36 318.69c-5.5522 7.8188-5.2224 17.841-4.5708 26.925 0.5784 4.6175 3.2175 9.032 6.9092 11.932 2.3438 2.2982 5.6625 1.1515 4.5894-2.3412-1.1415-4.9419-7.4676-6.4192-8.7931-11.3-3.262-6.3328-0.66077-13.875 3.5375-19.132 1.8237-2.0193 3.4797-4.6958 6.2682-5.3466 2.6902-1.7837 3.7701-5.8216 2.3768-8.6822-3.3078-1.4471-5.3321 3.8789-7.9634 5.3654-0.8262 0.82224-1.624 1.6738-2.3538 2.5805zm60.511-2.3896c-2.3158 6.0404 2.625 12.789-1.0638 18.543-2.4672 3.5895-4.2538 7.637-6.976 11.087-2.4681 3.3271-5.4109 6.3692-8.9473 8.6122-1.1837 2.031-1.3391 6.9457 1.8041 6.8447 3.0578-2.8359 5.8784-6.0607 8.6127-9.2504 4.5526-5.3671 7.7677-11.898 8.3541-18.92 0.45129-4.785 0.60669-9.774-0.64087-14.438-0.36285-0.83432-0.80194-1.6349-1.1431-2.4785z" fill="#fff" fill-opacity=".171"/>
  <path d="m221.46 148.11c1.2741 1.9652 4.6786 6.5085 4.0011 1.2308 1.2488-7.2183 5.8173-13.269 10.33-18.878 5.0648-1.4564 10.81 1.2159 14.222 4.7934 0.68869 2.7341 1.5402 8.8056 4.5736 8.3973-0.20245-8.073-5.7624-15.974-13.881-18.054-4.1343-2.2809-9.5312-0.98979-11.343 3.5033-4.1113 5.5295-8.114 11.913-7.9025 19.008zm9.6932 9.2609c1.2031 4.2484 4.4362 8.0682 9.2875 7.9776 5.3882 1.1023 10.666-1.6421 13.508-6.1022 3.4602-1.9489 0.5777-9.688-2.2374-7.5439-1.9612 4.856-7.6787 10.224-13.322 7.5464-1.9972-1.7672-8.0779-2.6833-4.2273 1.2733 2.7792 4.5941-4.2046-6.5629-0.45459-0.47681 2.4012 4.2087-1.9775-2.1658-2.5536-2.6744z" fill-opacity=".129"/>
  <path d="m211.03 148.31c-0.37622 8.0416 4.46 15.054 9.0955 21.253 2.5328 3.0418 6.4442 5.0267 10.412 5.4641 2.7289 0.60417 4.5729-1.6836 2.2031-3.7033-3.084-3.0243-8.2802-1.2796-11.468-4.1793-5.237-3.0793-6.8414-9.6174-6.2563-15.23 0.37552-2.2493 0.32947-4.8938 2.0223-6.5927 1.1026-2.4647 0.020233-5.8264-2.288-7.253-3.0268 0.43045-2.0277 5.1302-3.2245 7.3564-0.21268 0.9529-0.39163 1.9143-0.49658 2.8848zm42.121-28.487c1.1189 5.3391 7.7456 7.9724 7.7523 13.714-0.11432 3.6556 0.46762 7.3371 0.10733 11.006-0.23541 3.4686-0.9407 6.9437-2.4368 10.111 0.087006 1.9745 2.2321 5.5534 4.4307 4.0901 0.88196-3.3787 1.4161-6.9302 1.9048-10.418 0.78769-5.848 0.085938-11.936-2.7185-17.21-1.8743-3.6172-4.0535-7.2493-7.0857-10.028-0.64203-0.43529-1.3232-0.81273-1.9542-1.2643z" fill="#fff" fill-opacity=".171"/>
  <path d="m238.89 300.15c-0.38992 2.0797-0.98645 7.1662 1.8853 3.2463 5.3739-4.0408 12.22-5.2911 18.75-6.2815 4.2837 2.1055 6.4207 7.3683 6.4373 11.817-1.2632 2.2356-4.5189 6.7887-2.2453 8.3581 4.9471-5.4898 6.2241-14.116 2.1366-20.426-1.3126-4.0253-5.7133-6.4422-9.746-4.5547-6.2139 1.181-12.893 2.9954-17.218 7.8405zm0.6146 12.039c-1.8744 3.5544-2.1294 8.0559 1.1528 10.94 2.8882 4.0027 8.1246 5.3814 12.821 4.1406 3.5272 0.80423 6.4824-6.0901 3.2612-6.373-4.3604 2.0381-11.541 2.1372-13.607-3.068-0.21542-2.3869-3.6812-6.6861-3.6118-1.719-1.0442 4.7408 1.3358-6.9146-0.002106-0.5928-1.0529 4.2551 0.048737-2.6399-0.014282-3.3277z" fill-opacity=".129"/>
  <path d="m231.83 293.96c-5.3121 5.1177-6.5106 12.714-7.3315 19.649-0.23099 3.5592 1.1199 7.2525 3.4824 9.9512 1.434 2.0577 4.0998 1.6558 3.7957-1.1249-0.14652-3.8821-4.6992-5.8757-4.993-9.7377-1.5432-5.2253 1.5057-10.545 5.4277-13.922 1.6655-1.2674 3.2996-3.0533 5.4945-3.1555 2.2844-0.96936 3.6809-3.8611 3.0443-6.2103-2.2831-1.5507-4.5772 2.1801-6.7742 2.9337-0.74115 0.50446-1.4653 1.035-2.1459 1.6165zm45.934 6.6234c-2.6169 4.2284 0.13092 10.001-3.4789 13.822-2.3771 2.3609-4.3075 5.1615-6.8566 7.3821-2.3399 2.163-4.9963 4.0453-7.9844 5.2429-1.1852 1.3653-2.0118 5.0464 0.37091 5.4078 2.7132-1.7108 5.3038-3.7477 7.8244-5.7701 4.2048-3.4098 7.57-7.8826 9.0258-13.091 1.0309-3.5421 1.8684-7.2792 1.602-10.967-0.15289-0.67908-0.3682-1.3434-0.50336-2.0265z" fill="#fff" fill-opacity=".171"/>
  <path d="m342.03 178.96c0.92706 2.0324 3.5042 6.794 3.6101 1.7098 2.2024-6.6567 7.3794-11.756 12.441-16.446 4.9963-0.68655 10.052 2.6245 12.772 6.4735 0.26459 2.6798 0.21094 8.5384 3.1376 8.566 0.95078-7.663-3.1899-15.894-10.574-18.969-3.5875-2.7212-8.8745-2.2362-11.224 1.7662-4.6708 4.669-9.3596 10.16-10.164 16.899zm7.8575 10.081c0.53662 4.1822 3.0541 8.236 7.6552 8.812 4.9402 1.7775 10.32-0.098129 13.639-3.9289 3.5484-1.3713 1.917-9.0841-1.0488-7.4401-2.5419 4.3253-8.7091 8.6228-13.668 5.32-1.6388-1.9438-7.2603-3.6397-4.1783 0.62766 1.9786 4.7241-3.0481-6.7807-0.36252-0.513 1.6756 4.3082-1.5637-2.3182-2.0367-2.8777z" fill-opacity=".129"/>
  <path d="m332.14 177.73c-1.4936 7.5543 2.0882 14.846 5.5953 21.342 1.965 3.2224 5.3836 5.6332 9.0744 6.5881 2.4956 0.94365 4.5633-0.96857 2.6077-3.202-2.4889-3.281-7.6503-2.3398-10.255-5.5171-4.5173-3.6267-5.1097-10.029-3.7623-15.258 0.67352-2.0761 1.0042-4.5836 2.8456-5.9595 1.3915-2.1806 0.84348-5.5078-1.1378-7.1718-2.9236-0.005768-2.6436 4.5755-4.0905 6.5178-0.336 0.87221-0.64127 1.757-0.87778 2.6606zm43.868-21.197c0.30283 5.2023 6.1977 8.5968 5.3917 14.028-0.62549 3.4419-0.59586 7.0032-1.4557 10.424-0.71347 3.2484-1.8722 6.439-3.7353 9.2303-0.19717 1.8794 1.3253 5.5568 3.6118 4.4728 1.3122-3.0753 2.3199-6.3613 3.2756-9.5939 1.5724-5.4236 1.7699-11.277-0.1362-16.648-1.2608-3.6768-2.8081-7.4092-5.2826-10.451-0.54575-0.49928-1.1366-0.94916-1.6694-1.4623z" fill="#fff" fill-opacity=".171"/>
  <path d="m145.18 232.9c-1.5728-0.7841-5.5024-2.4264-3.0347 0.69911 1.9829 5.0831 1.3916 10.653 0.66573 15.919-2.6797 2.8139-7.3857 3.2384-10.948 2.217-1.4944-1.4936-4.3794-5.0624-6.163-3.6741 3.241 5.0907 9.8438 8.0806 15.84 6.3954 3.5246-0.076599 6.4805-2.9081 5.9083-6.4565 0.49976-5.066 0.60098-10.638-2.2687-15.1zm-9.772-2.3245c-2.4072-2.2716-5.9483-3.5145-9.0178-1.6539-3.8728 1.2967-6.1925 5.0141-6.2917 8.9239-1.4631 2.5328 3.3642 6.4141 4.3391 3.996-0.61655-3.8361 0.97316-9.3958 5.6166-9.7791 1.9591 0.38876 6.2032-1.2844 2.2144-2.3855-3.549-1.9071 5.2199 2.6373 0.47466 0.13618-3.1586-1.801 2.1001 0.6512 2.6648 0.76245z" fill-opacity=".129"/>
  <path d="m151.77 228.89c-2.8585-5.2857-8.6556-7.9757-14.011-10.22-2.7931-1.0054-6.061-0.8222-8.7686 0.37224-1.9791 0.6274-2.2773 2.7765 0.017517 3.1883 3.139 0.78941 5.7917-2.2577 8.9489-1.5866 4.5379 0.024628 8.0844 3.6122 9.8733 7.4213 0.62651 1.5789 1.6751 3.254 1.2467 4.9702 0.24432 1.9868 2.2326 3.7359 4.2594 3.791 1.771-1.4001-0.67969-4.0363-0.7718-5.9055-0.23119-0.68878-0.48715-1.3704-0.79407-2.0304zm-15.974 33.88c-2.7737-3.0008-8.029-2.2236-10.246-5.8954-1.3358-2.3817-3.127-4.5213-4.3106-7.003-1.1861-2.3071-2.0741-4.7929-2.3374-7.3754-0.81657-1.2312-3.5686-2.7243-4.4115-0.97095 0.73772 2.4897 1.7647 4.9608 2.7963 7.3746 1.7499 4.0348 4.5451 7.6695 8.3724 10.003 2.5934 1.6182 5.3878 3.1327 8.3992 3.7844 0.57863 0.039917 1.16 0.028381 1.7377 0.082947z" fill="#fff" fill-opacity=".171"/>
 </g>
</svg>
