<?xml version="1.0" encoding="UTF-8"?>
<svg width="50.126mm" height="19.194mm" version="1.1" viewBox="0 0 177.61204 68.010487" xmlns="http://www.w3.org/2000/svg">
 <g transform="matrix(.54672 0 0 .54672 71.495 57.26)">
  <circle cx="-74.49" cy="-41.144" r="30.142" fill="#3b5998" fill-rule="evenodd"/>
  <text transform="scale(1.1174 .89497)" x="-70.326736" y="-25.922766" fill="#ffffff" font-family="sans-serif" font-size="48.076px" letter-spacing="0px" stroke-width="1px" word-spacing="0px" style="line-height:125%">
   <tspan x="-70.326736" y="-25.922766">f</tspan>
  </text>
  <circle cx="-3.7927" cy="-41.769" r="30.142" fill="#dd4b39" fill-rule="evenodd" opacity=".99"/>
  <text transform="scale(1.0156 .98465)" x="-29.094318" y="-30.578829" fill="#ffffff" font-family="sans-serif" font-size="32.644px" letter-spacing="0px" opacity=".99" stroke-width="1px" word-spacing="0px" style="line-height:125%">
   <tspan x="-29.094318" y="-30.578829">G+</tspan>
  </text>
  <circle cx="138.49" cy="-40.717" r="30.142" fill="#007ab6" fill-rule="evenodd"/>
 </g>
 <circle cx="108.62" cy="34.987" r="16.506" fill="#008000" fill-rule="evenodd"/>
 <path d="m115.49 27.829c-1.815-1.8165-4.2288-2.8174-6.8004-2.8185-5.2987 0-9.6113 4.311-9.6134 9.6097-4.1e-4 1.6938 0.44199 3.347 1.2832 4.8045l-1.3638 4.9801 5.0961-1.3364c1.4042 0.7656 2.985 1.1691 4.594 1.1697h4e-3c5.2982 0 9.6113-4.3115 9.6134-9.6102 2e-3 -2.5679-0.99799-4.9825-2.813-6.7991zm-6.8004 14.786h-4e-3c-1.4338-4.12e-4 -2.84-0.38559-4.0667-1.1134l-0.29179-0.1731-3.0242 0.79305 0.80722-2.9476-0.19003-0.30221c-0.79984-1.2718-1.2223-2.7418-1.2217-4.251 2e-3 -4.4042 3.5861-7.9874 7.9936-7.9874 2.1342 4.13e-4 4.1403 0.8328 5.649 2.3426s2.3389 3.5167 2.3382 5.6511c-2e-3 4.4044-3.5861 7.9879-7.9902 7.9879zm4.383-5.9825c-0.24025-0.12019-1.4212-0.70113-1.6414-0.78128-0.22016-0.08015-0.38028-0.12021-0.54048 0.12022-0.16008 0.24038-0.62042 0.78128-0.76058 0.94152-0.14011 0.16027-0.28022 0.18033-0.52043 0.06009-0.24022-0.12019-1.0142-0.37376-1.9317-1.1918-0.71405-0.63666-1.1962-1.4231-1.3363-1.6635-0.14013-0.2404-0.0148-0.37034 0.10534-0.49008 0.10803-0.10757 0.2402-0.28046 0.3603-0.42068 0.12008-0.14019 0.16015-0.24041 0.2402-0.40065 0.08-0.16027 0.04-0.30051-0.02-0.4207-0.0601-0.12019-0.54045-1.3021-0.7406-1.7829-0.19497-0.46824-0.39306-0.40489-0.54049-0.41224-0.13994-7e-3 -0.30025-0.0085-0.46036-0.0085-0.16012 0-0.42037 0.06009-0.64054 0.30049-0.22017 0.24041-0.8407 0.82135-0.8407 2.0033s0.86071 2.3238 0.98081 2.484c0.12012 0.16027 1.6938 2.5858 4.1034 3.6259 0.57312 0.2474 1.0205 0.39516 1.3694 0.50584 0.57541 0.18271 1.099 0.15695 1.513 0.09514 0.4615-0.06893 1.4211-0.5809 1.6214-1.1418 0.20017-0.56095 0.20017-1.0417 0.14012-1.1419-0.0601-0.10017-0.22017-0.16027-0.46037-0.28049z" fill="#fff"/>
 <text transform="scale(1.109 .9017)" x="123.83387" y="46.663113" fill="#ffffff" font-family="sans-serif" font-size="23.402px" letter-spacing="0px" stroke-width="1px" word-spacing="0px" style="line-height:125%">
  <tspan x="123.83387" y="46.663113" fill="#ffffff" font-family="Arial">in</tspan>
 </text>
</svg>
